<svg id="ver_mapa" data-name="ver mapa" xmlns="http://www.w3.org/2000/svg" width="36" height="36" viewBox="0 0 36 36">
  <g id="Grupo_299" data-name="Grupo 299" transform="translate(0.189)">
    <g id="Rectangle" transform="translate(-0.189)" fill="none" stroke="#4e4d36" stroke-width="1">
      <rect width="36" height="36" rx="4" stroke="none"/>
      <rect x="0.5" y="0.5" width="35" height="35" rx="3.5" fill="none"/>
    </g>
  </g>
  <path id="Trazado_688" data-name="Trazado 688" d="M1331.081,525.914l.456.743-.1.3.041-.284-.366-.49.561,1.387.723.865.146.537.38.539.721.13.705.578.871-.286.452.084,1.114-.4.142.115-.175.025-.006.035.226.185.335-.07.286-.21-.24-.212.667-.488.076-.469.219-.216.1-1.074.427-.241,1.751-.389.888.175.115-.121-.275.029.329-.08.259.206.041.268-.644.972-.046.142.028.2-.023.051.018-.08-.031-.025-.251.284.078.181.242-.08-.262.278.187.025-.354,1.15-.224-.317.033-.391-.793,1.007-.179-.105-.117.2-1.82,0,0,.589-.444.02,1.015.856-.035.345-1.272.012-.477.851.14.193-.144.542-1.7-1.6-.456-.212.343.259-.632-.148.111-.132-.211.058-.066-.173-.2.161.2.06-1.6.6-1.3-.342-.978-.607-.893-.161-1.309-.585-.931-.743-.216.061-1.265-.412-.516-.589-1.038-.516-.647-1.056.429-.2-.078-.2-.211-.029.291-.284.052-.39-.456-.568-.17-.714-1.081-1.253-.8-.634.128.046-.021-.092-.372-.138.006-.324-.113.142-.117-.216.177-.046-.347-.072-.368-.416-.339.015.137-.039.134-.241-.3.22-.295-.247.2-.521.125.037-.335-.451-.306.019-.193-.414-.574-.29-.1-.3.121-.2-.584-.084-1.047-1.081-.051-.35-.859-1.453-.01-.556-.493-.107-.38-.337-.045.165-.195-.025-.8-.457.241.309-.093.535.173.235.16.967.867.747.158.406.31.086.078.342.249.072.109.605.4.311.483.918.169.064-.156-.315.279.19.259.982.608.924.028.587.3.229.142-.243.793.927-.109.352-.5.226-.279-.683-1.756-1.248-.014-1.015-.275-.552-.826-.467.082-.268-.142.185-.32.043-1.373-1.025-.033-.13.581.043.255.115.189-.006-.32-.173.177-.165.066-.517-.875-.893-.742-.418-.355-1.068-.612-.8.067-.3-.232-.152-.276-.568,2.375-.191-.074.226,3.706,1.221h2.8v-.471l1.666,0,1.571,1.225.387.976,1.153.679.208.041.489-.793.365-.152.886.119.731.693.38.867.768.743.045.543.351.64,1.668.618.273-.128-.529,1.641-.064,1.556-.146.319Z" transform="translate(-1308.957 -506.484)" fill="#4e4d33"/>
</svg>
